<svg width="197" height="84" fill="none" xmlns="http://www.w3.org/2000/svg"><path d="M92.877 38.224V2.205h16.157c4.15 0 7.341.84 9.57 2.521 2.23 1.647 3.345 3.911 3.345 6.793 0 1.955-.446 3.601-1.338 4.94-.858 1.337-2.024 2.366-3.499 3.087-1.475.72-3.07 1.08-4.785 1.08l.926-1.544c2.058 0 3.876.36 5.454 1.081 1.578.72 2.83 1.784 3.756 3.19.927 1.372 1.39 3.088 1.39 5.146 0 3.087-1.167 5.488-3.499 7.204-2.299 1.68-5.729 2.52-10.291 2.52H92.877zm5.145-4.168h11.835c2.847 0 5.025-.48 6.535-1.44 1.509-.961 2.264-2.47 2.264-4.529 0-2.092-.755-3.619-2.264-4.58-1.51-.96-3.688-1.44-6.535-1.44H97.559v-4.168h11.012c2.607 0 4.631-.48 6.071-1.44 1.441-.961 2.161-2.402 2.161-4.323 0-1.921-.72-3.362-2.161-4.322-1.44-.96-3.464-1.441-6.071-1.441H98.022v27.683zm33.798 4.168V2.205h5.145v36.019h-5.145zm32.189.412c-2.745 0-5.3-.464-7.667-1.39-2.333-.926-4.357-2.212-6.072-3.859a18.22 18.22 0 01-4.013-5.866c-.961-2.23-1.441-4.665-1.441-7.306 0-2.642.48-5.077 1.441-7.307a17.643 17.643 0 014.013-5.815c1.715-1.68 3.739-2.984 6.072-3.91 2.333-.926 4.888-1.39 7.667-1.39 2.744 0 5.265.464 7.564 1.39 2.332.892 4.356 2.178 6.071 3.859a16.674 16.674 0 014.014 5.814c.96 2.23 1.441 4.683 1.441 7.359 0 2.675-.481 5.128-1.441 7.358a17.197 17.197 0 01-4.014 5.865c-1.715 1.647-3.739 2.933-6.071 3.86-2.299.892-4.82 1.337-7.564 1.337zm0-4.58c1.989 0 3.825-.343 5.505-1.03 1.716-.685 3.191-1.646 4.426-2.88a13.318 13.318 0 002.933-4.426c.72-1.68 1.08-3.516 1.08-5.505 0-1.99-.36-3.825-1.08-5.506a12.769 12.769 0 00-2.933-4.374c-1.235-1.27-2.71-2.247-4.426-2.933-1.68-.686-3.516-1.029-5.505-1.029-2.024 0-3.894.343-5.609 1.03a13.296 13.296 0 00-4.425 2.932 13.388 13.388 0 00-2.984 4.374c-.687 1.68-1.03 3.516-1.03 5.506 0 1.99.343 3.824 1.03 5.505a13.983 13.983 0 002.984 4.425 13.699 13.699 0 004.425 2.882c1.715.686 3.585 1.029 5.609 1.029zm-57.568 47.537c-2.416 0-4.651-.4-6.705-1.2-2.023-.832-3.79-1.987-5.3-3.466a16.76 16.76 0 01-3.489-5.266c-.845-2.002-1.268-4.204-1.268-6.607 0-2.402.423-4.604 1.269-6.606a15.86 15.86 0 013.533-5.22 15.46 15.46 0 015.3-3.466c2.054-.831 4.289-1.247 6.705-1.247 2.447 0 4.697.431 6.75 1.294a13.627 13.627 0 015.301 3.742l-2.945 2.91c-1.208-1.293-2.567-2.248-4.077-2.864-1.51-.647-3.126-.97-4.847-.97-1.782 0-3.443.308-4.984.924a11.926 11.926 0 00-3.941 2.587c-1.117 1.108-1.993 2.433-2.628 3.973-.604 1.509-.906 3.157-.906 4.943 0 1.787.302 3.45.906 4.99a12.036 12.036 0 002.628 3.927 11.924 11.924 0 003.941 2.587c1.541.616 3.202.924 4.984.924 1.721 0 3.337-.308 4.847-.924 1.51-.647 2.869-1.633 4.077-2.957l2.945 2.91c-1.45 1.664-3.217 2.926-5.301 3.789-2.053.862-4.318 1.293-6.795 1.293zm25.542-.369l-10.6-32.34h4.666l9.74 29.845h-2.356l10.103-29.844h4.167l9.876 29.844h-2.265l9.876-29.844h4.304l-10.601 32.339h-4.757l-9.241-27.673h1.223l-9.287 27.673h-4.848zm49.659 0v-28.32H170.77v-4.02H197v4.02h-10.873v28.32h-4.485z" fill="#F5F5F5"/><path d="M71.31 2.014C34.915 31.29-21.756 76.95 82.186 51.165M77.352 2.417c-26.32 24.173-72.518 65.67 4.835 42.705m-.403-37.064c-18.398 16.92-44.155 47.297 0 31.827m.403-18.533c-7.655 6.044-22.964 22.965 0 11.684" stroke="#F5F5F5" stroke-linecap="round"/><path d="M2.014 59.223c-1.208-5.372 4.27-18.29 18.13-26.993 17.324-10.877 20.144-5.64 40.69-30.216M2.014 35.453C27.8 24.173 66.153 1.047 13.295 2.014m-5.64.403c16.115 2.955 43.913 8.46-6.044 27.799m0-19.338c14.101 1.074 37.065 1.611 0 11.28" stroke="#F5F5F5" stroke-linecap="round"/><path d="M81.784 61.237c-9.4 0-33.278.403-42.302 8.46-9.024 8.058-28.739-4.565-37.87-12.086m46.33 24.173c3.358-6.715 6.85-19.74 33.842-14.906M61.64 81.784c.672-6.446 2.82-17.727 20.144-9.669M2.417 70.504c9.67.268 33.842 4.834 12.087 11.28m-12.49-5.64c6.715-1.209 22.159-1.209 7.252 5.64" stroke="#F5F5F5" stroke-linecap="round"/><rect x="2" y="2" width="79.799" height="79.799" rx="9" stroke="#F5F5F5" stroke-width="4"/></svg>